<svg width="336" height="155" viewBox="0 0 336 155" fill="none" xmlns="http://www.w3.org/2000/svg">
<g clip-path="url(#clip0)">
<path d="M137.478 92.3871C132.248 92.3871 127.513 91.6283 123.271 90.1103C119.087 88.534 115.514 86.3154 112.55 83.4549C109.645 80.5357 107.379 77.0329 105.752 72.9464C104.183 68.8013 103.399 64.16 103.399 59.0227C103.399 53.7102 104.242 48.8645 105.926 44.486C107.669 40.0491 110.081 36.2543 113.161 33.1018C116.24 29.9492 119.93 27.5265 124.23 25.8334C128.53 24.082 133.294 23.2063 138.524 23.2063C142.127 23.2063 145.555 23.7025 148.809 24.695C152.063 25.6875 155.578 27.2929 159.355 29.5114L161.011 24.082H164.149V46.2374H159.791C158.629 40.7496 156.276 36.4878 152.731 33.4521C149.245 30.4163 144.858 28.8984 139.57 28.8984C132.888 28.8984 127.687 31.4963 123.968 36.6922C120.308 41.8296 118.477 49.0396 118.477 58.3221C118.477 67.4295 120.279 74.4058 123.881 79.2515C127.484 84.0972 132.713 86.5199 139.57 86.5199C144.509 86.5199 148.344 85.2645 151.075 82.7543C153.864 80.1854 155.259 76.6537 155.259 72.1583C155.259 69.4729 154.561 67.517 153.167 66.291C151.772 65.0068 149.419 64.2187 146.107 63.9266V60.4238H174.347V63.9266C171.499 63.9266 169.524 64.569 168.42 65.8532C167.316 67.0792 166.764 69.3267 166.764 72.5961V84.243C165.485 84.243 164.41 84.3013 163.539 84.4182C162.667 84.4764 161.796 84.6515 160.924 84.9436C160.111 85.177 159.181 85.5859 158.135 86.1696C157.089 86.7532 155.782 87.5125 154.213 88.4464C149.739 91.0735 144.161 92.3871 137.478 92.3871ZM239.453 24.082H243.724L241.981 46.2374H238.494C237.274 40.8664 234.891 36.6338 231.347 33.5396C227.861 30.4455 223.619 28.8984 218.622 28.8984C215.193 28.8984 212.143 29.599 209.47 31.0001C206.797 32.3428 204.531 34.2986 202.672 36.8673C200.87 39.3777 199.476 42.4718 198.488 46.1498C197.558 49.7695 197.093 53.856 197.093 58.4097C197.093 67.4588 198.924 74.4351 202.584 79.3391C206.303 84.1848 211.765 86.6074 218.97 86.6074C224.781 86.6074 229.575 85.0312 233.352 81.8786C237.187 78.7261 239.918 74.0266 241.545 67.7797H245.38V91.5114H241.283L240.063 84.5933C233.671 89.7893 225.914 92.3871 216.791 92.3871C211.504 92.3871 206.71 91.599 202.41 90.0227C198.11 88.4464 194.449 86.2278 191.428 83.3673C188.406 80.4482 186.053 76.9164 184.368 72.7713C182.741 68.6261 181.928 64.0142 181.928 58.9351C181.928 53.6226 182.799 48.7769 184.542 44.3984C186.286 40.0199 188.726 36.2543 191.864 33.1018C195.06 29.9492 198.837 27.5265 203.195 25.8334C207.611 24.082 212.491 23.2063 217.837 23.2063C221.382 23.2063 224.694 23.7025 227.774 24.695C230.853 25.6875 234.194 27.2929 237.797 29.5114L239.453 24.082ZM322.798 43.3475H319.051C318.876 40.4869 318.44 38.1225 317.743 36.2543C317.104 34.3278 316.174 32.8099 314.954 31.7007C313.734 30.533 312.252 29.7449 310.509 29.3362C308.766 28.8692 306.732 28.6357 304.408 28.6357C302.142 28.6357 300.311 28.694 298.917 28.8108C297.58 28.8692 296.534 29.0152 295.779 29.2487C295.082 29.4238 294.617 29.6865 294.384 30.0368C294.152 30.3871 294.036 30.8249 294.036 31.3504V77.2374C294.036 79.1057 294.152 80.7109 294.384 82.0538C294.675 83.3967 295.227 84.5057 296.04 85.3814C296.854 86.1989 298.045 86.8408 299.614 87.308C301.183 87.7165 303.245 87.9503 305.802 88.0086V91.5114H269.282V88.0086C271.897 87.9503 273.989 87.7165 275.558 87.308C277.127 86.8408 278.318 86.1989 279.131 85.3814C280.003 84.5057 280.555 83.3967 280.788 82.0538C281.078 80.7109 281.223 79.1057 281.223 77.2374V31.3504C281.223 30.8249 281.107 30.3871 280.875 30.0368C280.7 29.6865 280.294 29.4238 279.654 29.2487C279.015 29.0152 278.086 28.8692 276.865 28.8108C275.703 28.694 274.163 28.6357 272.246 28.6357C270.154 28.6357 268.149 28.7525 266.232 28.986C264.314 29.1611 262.629 29.7449 261.177 30.7374C259.724 31.6714 258.533 33.131 257.603 35.1159C256.731 37.0425 256.266 39.7864 256.209 43.3475H252.809L253.681 24.082H321.927L322.798 43.3475Z" fill="white"/>
<path d="M13.5204 142.259H14.9437V147.636C14.2889 148.214 13.5138 148.657 12.6183 148.966C11.7229 149.274 10.7807 149.429 9.79174 149.429C8.38847 149.429 7.12553 149.12 6.00292 148.502C4.8803 147.885 3.99827 147.032 3.35677 145.944C2.71528 144.843 2.39453 143.615 2.39453 142.259C2.39453 140.903 2.71528 139.681 3.35677 138.593C3.99827 137.492 4.8803 136.633 6.00292 136.015C7.12553 135.397 8.39518 135.088 9.81179 135.088C10.881 135.088 11.8633 135.263 12.7587 135.612C13.6541 135.948 14.4092 136.451 15.0239 137.123L14.1018 138.069C12.9925 136.968 11.5826 136.418 9.87193 136.418C8.73598 136.418 7.70689 136.673 6.78474 137.183C5.87597 137.68 5.16096 138.378 4.63974 139.278C4.11855 140.164 3.85794 141.157 3.85794 142.259C3.85794 143.36 4.11855 144.353 4.63974 145.24C5.16096 146.126 5.87597 146.824 6.78474 147.334C7.69355 147.844 8.71593 148.1 9.85188 148.1C11.2952 148.1 12.5181 147.737 13.5204 147.012V142.259ZM28.3437 138.714V149.308H26.9806V147.375C26.6063 148.019 26.0918 148.523 25.437 148.885C24.7821 149.234 24.0337 149.409 23.1917 149.409C21.8152 149.409 20.726 149.026 19.9241 148.261C19.1356 147.482 18.7414 146.347 18.7414 144.857V138.714H20.1647V144.716C20.1647 145.83 20.4386 146.676 20.9866 147.254C21.5345 147.831 22.3163 148.12 23.3321 148.12C24.4413 148.12 25.3167 147.784 25.9582 147.113C26.5997 146.428 26.9204 145.481 26.9204 144.273V138.714H28.3437ZM41.5114 144.454H32.6909C32.771 145.555 33.192 146.448 33.9538 147.133C34.7156 147.804 35.6778 148.14 36.8405 148.14C37.4954 148.14 38.0968 148.026 38.6447 147.797C39.1927 147.556 39.6671 147.207 40.068 146.75L40.8699 147.677C40.4022 148.241 39.8141 148.67 39.1058 148.966C38.4109 149.261 37.6424 149.409 36.8004 149.409C35.7179 149.409 34.7557 149.181 33.9137 148.724C33.0851 148.254 32.437 147.61 31.9692 146.79C31.5014 145.971 31.2675 145.045 31.2675 144.011C31.2675 142.977 31.4881 142.051 31.9291 141.231C32.3835 140.412 32.9983 139.775 33.7734 139.318C34.5619 138.861 35.444 138.633 36.4195 138.633C37.3952 138.633 38.2706 138.861 39.0457 139.318C39.8208 139.775 40.4289 140.412 40.8699 141.231C41.3109 142.037 41.5315 142.964 41.5315 144.011L41.5114 144.454ZM36.4195 139.862C35.4039 139.862 34.5485 140.191 33.8536 140.849C33.172 141.493 32.7844 142.339 32.6909 143.387H40.1683C40.0748 142.339 39.6805 141.493 38.9855 140.849C38.3039 140.191 37.4486 139.862 36.4195 139.862ZM49.8012 138.633C51.1243 138.633 52.1733 139.022 52.9486 139.801C53.7369 140.567 54.1313 141.688 54.1313 143.165V149.308H52.708V143.306C52.708 142.205 52.4339 141.366 51.8861 140.788C51.3379 140.211 50.556 139.922 49.5406 139.922C48.4045 139.922 47.5024 140.265 46.8343 140.949C46.1793 141.621 45.852 142.554 45.852 143.749V149.308H44.4287V138.714H45.7919V140.667C46.1793 140.023 46.714 139.526 47.3956 139.177C48.0903 138.814 48.8922 138.633 49.8012 138.633ZM67.2157 144.454H58.3952C58.4754 145.555 58.8963 146.448 59.6581 147.133C60.4199 147.804 61.3821 148.14 62.5448 148.14C63.1998 148.14 63.8012 148.026 64.349 147.797C64.8973 147.556 65.3714 147.207 65.7723 146.75L66.5742 147.677C66.1066 148.241 65.5187 148.67 64.8101 148.966C64.1154 149.261 63.3467 149.409 62.5047 149.409C61.4222 149.409 60.46 149.181 59.618 148.724C58.7896 148.254 58.1415 147.61 57.6735 146.79C57.2059 145.971 56.9718 145.045 56.9718 144.011C56.9718 142.977 57.1924 142.051 57.6334 141.231C58.0879 140.412 58.7028 139.775 59.4777 139.318C60.2665 138.861 61.1485 138.633 62.1238 138.633C63.0996 138.633 63.9751 138.861 64.75 139.318C65.5252 139.775 66.1332 140.412 66.5742 141.231C67.0152 142.037 67.2358 142.964 67.2358 144.011L67.2157 144.454ZM62.1238 139.862C61.1084 139.862 60.253 140.191 59.5579 140.849C58.8763 141.493 58.4889 142.339 58.3952 143.387H65.8726C65.7793 142.339 65.3849 141.493 64.6898 140.849C64.0082 140.191 63.1532 139.862 62.1238 139.862ZM75.5054 138.633C76.8285 138.633 77.8775 139.022 78.6528 139.801C79.4411 140.567 79.8355 141.688 79.8355 143.165V149.308H78.4122V143.306C78.4122 142.205 78.1381 141.366 77.5903 140.788C77.0425 140.211 76.2607 139.922 75.2448 139.922C74.1087 139.922 73.2066 140.265 72.5385 140.949C71.8835 141.621 71.5563 142.554 71.5563 143.749V149.308H70.1329V138.714H71.4961V140.667C71.8835 140.023 72.4183 139.526 73.0999 139.177C73.7949 138.814 74.5968 138.633 75.5054 138.633ZM89.0723 138.633C90.3954 138.633 91.4443 139.022 92.2196 139.801C93.0079 140.567 93.4024 141.688 93.4024 143.165V149.308H91.979V143.306C91.979 142.205 91.7049 141.366 91.1571 140.788C90.6093 140.211 89.8275 139.922 88.8117 139.922C87.6755 139.922 86.7734 140.265 86.1054 140.949C85.4503 141.621 85.1231 142.554 85.1231 143.749V149.308H83.6998V138.714H85.0629V140.667C85.4503 140.023 85.9851 139.526 86.6667 139.177C87.3618 138.814 88.1636 138.633 89.0723 138.633ZM100.955 138.633C102.331 138.633 103.387 138.982 104.123 139.681C104.857 140.365 105.225 141.386 105.225 142.742V149.308H103.862V147.656C103.541 148.207 103.067 148.637 102.439 148.946C101.824 149.254 101.089 149.409 100.233 149.409C99.0573 149.409 98.1216 149.127 97.4269 148.563C96.7318 147.999 96.3845 147.254 96.3845 146.327C96.3845 145.427 96.7053 144.702 97.3468 144.152C98.0013 143.602 99.0372 143.326 100.454 143.326H103.802V142.682C103.802 141.769 103.548 141.077 103.04 140.607C102.532 140.124 101.79 139.882 100.815 139.882C100.146 139.882 99.5048 139.996 98.8904 140.224C98.2754 140.439 97.7477 140.741 97.3067 141.131L96.6652 140.063C97.1995 139.607 97.841 139.258 98.5897 139.016C99.3379 138.761 100.126 138.633 100.955 138.633ZM100.454 148.281C101.256 148.281 101.944 148.1 102.519 147.737C103.093 147.361 103.521 146.824 103.802 146.126V144.394H100.494C98.6899 144.394 97.7878 145.025 97.7878 146.287C97.7878 146.905 98.0214 147.395 98.4894 147.757C98.957 148.106 99.612 148.281 100.454 148.281ZM120.733 149.429C119.342 149.429 118.086 149.12 116.964 148.502C115.854 147.885 114.979 147.032 114.338 145.944C113.709 144.843 113.395 143.615 113.395 142.259C113.395 140.903 113.709 139.681 114.338 138.593C114.979 137.492 115.861 136.633 116.984 136.015C118.106 135.397 119.362 135.088 120.753 135.088C121.795 135.088 122.757 135.263 123.639 135.612C124.521 135.961 125.27 136.472 125.885 137.143L124.942 138.089C123.846 136.975 122.463 136.418 120.793 136.418C119.683 136.418 118.674 136.673 117.766 137.183C116.857 137.693 116.142 138.392 115.621 139.278C115.112 140.164 114.859 141.157 114.859 142.259C114.859 143.36 115.112 144.353 115.621 145.24C116.142 146.126 116.857 146.824 117.766 147.334C118.674 147.844 119.683 148.1 120.793 148.1C122.477 148.1 123.86 147.536 124.942 146.408L125.885 147.354C125.27 148.026 124.514 148.543 123.619 148.905C122.737 149.254 121.775 149.429 120.733 149.429ZM132.586 149.409C131.57 149.409 130.655 149.181 129.84 148.724C129.024 148.254 128.383 147.61 127.915 146.79C127.448 145.971 127.214 145.045 127.214 144.011C127.214 142.977 127.448 142.051 127.915 141.231C128.383 140.412 129.024 139.775 129.84 139.318C130.655 138.861 131.57 138.633 132.586 138.633C133.602 138.633 134.517 138.861 135.333 139.318C136.148 139.775 136.783 140.412 137.237 141.231C137.705 142.051 137.939 142.977 137.939 144.011C137.939 145.045 137.705 145.971 137.237 146.79C136.783 147.61 136.148 148.254 135.333 148.724C134.517 149.181 133.602 149.409 132.586 149.409ZM132.586 148.14C133.334 148.14 134.003 147.972 134.591 147.636C135.192 147.287 135.66 146.797 135.994 146.166C136.328 145.535 136.495 144.817 136.495 144.011C136.495 143.205 136.328 142.487 135.994 141.856C135.66 141.225 135.192 140.741 134.591 140.406C134.003 140.057 133.334 139.882 132.586 139.882C131.838 139.882 131.163 140.057 130.562 140.406C129.974 140.741 129.506 141.225 129.158 141.856C128.824 142.487 128.657 143.205 128.657 144.011C128.657 144.817 128.824 145.535 129.158 146.166C129.506 146.797 129.974 147.287 130.562 147.636C131.163 147.972 131.838 148.14 132.586 148.14ZM153.995 138.633C155.318 138.633 156.354 139.016 157.102 139.781C157.864 140.547 158.245 141.675 158.245 143.165V149.308H156.822V143.306C156.822 142.205 156.554 141.366 156.02 140.788C155.499 140.211 154.757 139.922 153.795 139.922C152.699 139.922 151.837 140.265 151.209 140.949C150.58 141.621 150.267 142.554 150.267 143.749V149.308H148.843V143.306C148.843 142.205 148.576 141.366 148.041 140.788C147.52 140.211 146.771 139.922 145.796 139.922C144.714 139.922 143.852 140.265 143.21 140.949C142.582 141.621 142.268 142.554 142.268 143.749V149.308H140.845V138.714H142.208V140.647C142.582 140.003 143.103 139.506 143.771 139.157C144.439 138.808 145.208 138.633 146.077 138.633C146.959 138.633 147.721 138.821 148.362 139.197C149.017 139.573 149.505 140.13 149.826 140.869C150.213 140.171 150.768 139.627 151.489 139.237C152.224 138.835 153.06 138.633 153.995 138.633ZM175.256 138.633C176.579 138.633 177.615 139.016 178.363 139.781C179.125 140.547 179.506 141.675 179.506 143.165V149.308H178.082V143.306C178.082 142.205 177.815 141.366 177.28 140.788C176.759 140.211 176.017 139.922 175.055 139.922C173.959 139.922 173.097 140.265 172.469 140.949C171.841 141.621 171.527 142.554 171.527 143.749V149.308H170.104V143.306C170.104 142.205 169.836 141.366 169.302 140.788C168.781 140.211 168.032 139.922 167.057 139.922C165.974 139.922 165.112 140.265 164.47 140.949C163.842 141.621 163.528 142.554 163.528 143.749V149.308H162.105V138.714H163.468V140.647C163.843 140.003 164.364 139.506 165.032 139.157C165.7 138.808 166.469 138.633 167.337 138.633C168.219 138.633 168.981 138.821 169.622 139.197C170.277 139.573 170.765 140.13 171.086 140.869C171.473 140.171 172.028 139.627 172.75 139.237C173.485 138.835 174.32 138.633 175.256 138.633ZM192.586 144.454H183.765C183.846 145.555 184.267 146.448 185.028 147.133C185.79 147.804 186.752 148.14 187.915 148.14C188.57 148.14 189.172 148.026 189.719 147.797C190.267 147.556 190.742 147.207 191.143 146.75L191.944 147.677C191.477 148.241 190.889 148.67 190.18 148.966C189.485 149.261 188.717 149.409 187.875 149.409C186.792 149.409 185.83 149.181 184.988 148.724C184.16 148.254 183.511 147.61 183.044 146.79C182.576 145.971 182.342 145.045 182.342 144.011C182.342 142.977 182.563 142.051 183.004 141.231C183.458 140.412 184.073 139.775 184.848 139.318C185.636 138.861 186.518 138.633 187.494 138.633C188.47 138.633 189.345 138.861 190.12 139.318C190.896 139.775 191.503 140.412 191.944 141.231C192.385 142.037 192.606 142.964 192.606 144.011L192.586 144.454ZM187.494 139.862C186.478 139.862 185.623 140.191 184.928 140.849C184.247 141.493 183.859 142.339 183.765 143.387H191.243C191.149 142.339 190.755 141.493 190.06 140.849C189.378 140.191 188.523 139.862 187.494 139.862ZM196.866 140.788C197.2 140.077 197.695 139.54 198.35 139.177C199.018 138.814 199.84 138.633 200.816 138.633V140.023L200.475 140.003C199.365 140.003 198.497 140.345 197.869 141.03C197.24 141.715 196.927 142.675 196.927 143.91V149.308H195.503V138.714H196.866V140.788ZM207.665 149.409C206.623 149.409 205.687 149.181 204.858 148.724C204.043 148.267 203.402 147.63 202.934 146.811C202.466 145.978 202.232 145.045 202.232 144.011C202.232 142.977 202.466 142.051 202.934 141.231C203.402 140.412 204.043 139.775 204.858 139.318C205.687 138.861 206.623 138.633 207.665 138.633C208.574 138.633 209.382 138.814 210.091 139.177C210.812 139.526 211.38 140.043 211.795 140.728L210.732 141.453C210.384 140.929 209.943 140.54 209.409 140.285C208.874 140.016 208.293 139.882 207.665 139.882C206.903 139.882 206.215 140.057 205.6 140.406C204.999 140.741 204.524 141.225 204.177 141.856C203.843 142.487 203.676 143.205 203.676 144.011C203.676 144.83 203.843 145.555 204.177 146.186C204.524 146.804 204.999 147.287 205.6 147.636C206.215 147.972 206.903 148.14 207.665 148.14C208.293 148.14 208.874 148.012 209.409 147.757C209.943 147.502 210.384 147.113 210.732 146.589L211.795 147.314C211.38 147.999 210.812 148.523 210.091 148.885C209.369 149.234 208.56 149.409 207.665 149.409ZM223.596 144.454H214.775C214.855 145.555 215.276 146.448 216.038 147.133C216.8 147.804 217.762 148.14 218.925 148.14C219.58 148.14 220.181 148.026 220.729 147.797C221.277 147.556 221.751 147.207 222.152 146.75L222.954 147.677C222.486 148.241 221.899 148.67 221.19 148.966C220.495 149.261 219.727 149.409 218.885 149.409C217.802 149.409 216.84 149.181 215.998 148.724C215.169 148.254 214.521 147.61 214.053 146.79C213.586 145.971 213.352 145.045 213.352 144.011C213.352 142.977 213.572 142.051 214.013 141.231C214.468 140.412 215.083 139.775 215.858 139.318C216.646 138.861 217.528 138.633 218.504 138.633C219.479 138.633 220.355 138.861 221.13 139.318C221.905 139.775 222.513 140.412 222.954 141.231C223.395 142.037 223.616 142.964 223.616 144.011L223.596 144.454ZM218.504 139.862C217.488 139.862 216.633 140.191 215.938 140.849C215.256 141.493 214.869 142.339 214.775 143.387H222.252C222.159 142.339 221.765 141.493 221.07 140.849C220.388 140.191 219.533 139.862 218.504 139.862ZM232.06 135.209H237.773C239.257 135.209 240.566 135.511 241.703 136.116C242.839 136.706 243.721 137.539 244.349 138.613C244.977 139.674 245.291 140.889 245.291 142.259C245.291 143.628 244.977 144.85 244.349 145.924C243.721 146.985 242.839 147.818 241.703 148.422C240.566 149.013 239.257 149.308 237.773 149.308H232.06V135.209ZM237.693 148.019C238.923 148.019 239.999 147.777 240.921 147.294C241.843 146.797 242.558 146.119 243.066 145.26C243.573 144.387 243.827 143.387 243.827 142.259C243.827 141.131 243.573 140.137 243.066 139.278C242.558 138.405 241.843 137.727 240.921 137.243C239.999 136.747 238.923 136.498 237.693 136.498H233.544V148.019H237.693ZM257.503 144.454H248.682C248.762 145.555 249.183 146.448 249.945 147.133C250.707 147.804 251.669 148.14 252.832 148.14C253.487 148.14 254.088 148.026 254.636 147.797C255.184 147.556 255.659 147.207 256.059 146.75L256.861 147.677C256.394 148.241 255.805 148.67 255.097 148.966C254.402 149.261 253.634 149.409 252.792 149.409C251.709 149.409 250.747 149.181 249.905 148.724C249.077 148.254 248.428 147.61 247.961 146.79C247.493 145.971 247.259 145.045 247.259 144.011C247.259 142.977 247.479 142.051 247.92 141.231C248.375 140.412 248.989 139.775 249.765 139.318C250.553 138.861 251.435 138.633 252.411 138.633C253.387 138.633 254.262 138.861 255.037 139.318C255.812 139.775 256.42 140.412 256.861 141.231C257.302 142.037 257.523 142.964 257.523 144.011L257.503 144.454ZM252.411 139.862C251.395 139.862 250.54 140.191 249.845 140.849C249.163 141.493 248.776 142.339 248.682 143.387H256.16C256.066 142.339 255.672 141.493 254.977 140.849C254.295 140.191 253.44 139.862 252.411 139.862ZM268.694 136.498H263.762V135.209H275.109V136.498H270.177V149.308H268.694V136.498ZM286.406 138.714V149.308H285.043V147.375C284.668 148.019 284.154 148.523 283.499 148.885C282.844 149.234 282.096 149.409 281.254 149.409C279.877 149.409 278.788 149.026 277.986 148.261C277.197 147.482 276.803 146.347 276.803 144.857V138.714H278.227V144.716C278.227 145.83 278.5 146.676 279.049 147.254C279.596 147.831 280.378 148.12 281.394 148.12C282.503 148.12 283.379 147.784 284.02 147.113C284.662 146.428 284.982 145.481 284.982 144.273V138.714H286.406ZM295.765 138.633C297.088 138.633 298.137 139.022 298.912 139.801C299.7 140.567 300.095 141.688 300.095 143.165V149.308H298.671V143.306C298.671 142.205 298.397 141.366 297.849 140.788C297.302 140.211 296.52 139.922 295.504 139.922C294.368 139.922 293.466 140.265 292.798 140.949C292.143 141.621 291.815 142.554 291.815 143.749V149.308H290.392V138.714H291.755V140.667C292.143 140.023 292.677 139.526 293.359 139.177C294.054 138.814 294.856 138.633 295.765 138.633ZM303.959 138.714H305.382V149.308H303.959V138.714ZM304.681 136.398C304.386 136.398 304.139 136.297 303.939 136.095C303.738 135.894 303.638 135.652 303.638 135.37C303.638 135.102 303.738 134.867 303.939 134.665C304.139 134.464 304.386 134.363 304.681 134.363C304.975 134.363 305.222 134.464 305.422 134.665C305.623 134.853 305.723 135.082 305.723 135.35C305.723 135.646 305.623 135.894 305.422 136.095C305.222 136.297 304.975 136.398 304.681 136.398ZM312.169 149.409C311.314 149.409 310.492 149.288 309.703 149.046C308.928 148.791 308.32 148.476 307.879 148.1L308.52 146.972C308.961 147.321 309.516 147.61 310.184 147.838C310.853 148.053 311.547 148.16 312.269 148.16C313.231 148.16 313.94 148.012 314.394 147.717C314.862 147.408 315.096 146.978 315.096 146.428C315.096 146.039 314.969 145.737 314.715 145.522C314.461 145.293 314.14 145.125 313.753 145.018C313.365 144.897 312.85 144.783 312.209 144.676C311.354 144.514 310.665 144.353 310.144 144.192C309.623 144.018 309.175 143.729 308.801 143.326C308.44 142.923 308.26 142.366 308.26 141.654C308.26 140.768 308.628 140.043 309.362 139.479C310.097 138.915 311.12 138.633 312.429 138.633C313.111 138.633 313.793 138.727 314.474 138.915C315.156 139.09 315.717 139.325 316.158 139.62L315.537 140.768C314.668 140.164 313.632 139.862 312.429 139.862C311.521 139.862 310.833 140.023 310.365 140.345C309.911 140.667 309.683 141.09 309.683 141.614C309.683 142.017 309.81 142.339 310.064 142.581C310.332 142.823 310.659 143.004 311.046 143.125C311.434 143.232 311.968 143.346 312.65 143.467C313.492 143.628 314.167 143.789 314.675 143.951C315.183 144.112 315.617 144.387 315.978 144.776C316.339 145.166 316.519 145.703 316.519 146.388C316.519 147.314 316.132 148.053 315.356 148.603C314.594 149.14 313.532 149.409 312.169 149.409ZM319.15 138.714H320.574V149.308H319.15V138.714ZM319.872 136.398C319.578 136.398 319.331 136.297 319.13 136.095C318.93 135.894 318.83 135.652 318.83 135.37C318.83 135.102 318.93 134.867 319.13 134.665C319.331 134.464 319.578 134.363 319.872 134.363C320.166 134.363 320.413 134.464 320.614 134.665C320.814 134.853 320.914 135.082 320.914 135.35C320.914 135.646 320.814 135.894 320.614 136.095C320.413 136.297 320.166 136.398 319.872 136.398ZM333.716 144.454H324.895C324.975 145.555 325.396 146.448 326.158 147.133C326.92 147.804 327.882 148.14 329.045 148.14C329.699 148.14 330.301 148.026 330.849 147.797C331.397 147.556 331.871 147.207 332.272 146.75L333.074 147.677C332.606 148.241 332.018 148.67 331.31 148.966C330.615 149.261 329.847 149.409 329.005 149.409C327.922 149.409 326.96 149.181 326.118 148.724C325.289 148.254 324.641 147.61 324.173 146.79C323.705 145.971 323.472 145.045 323.472 144.011C323.472 142.977 323.692 142.051 324.133 141.231C324.587 140.412 325.202 139.775 325.978 139.318C326.766 138.861 327.648 138.633 328.624 138.633C329.599 138.633 330.474 138.861 331.25 139.318C332.025 139.775 332.633 140.412 333.074 141.231C333.515 142.037 333.736 142.964 333.736 144.011L333.716 144.454ZM328.624 139.862C327.608 139.862 326.752 140.191 326.058 140.849C325.376 141.493 324.988 142.339 324.895 143.387H332.372C332.279 142.339 331.884 141.493 331.19 140.849C330.508 140.191 329.653 139.862 328.624 139.862Z" fill="white"/>
<path fill-rule="evenodd" clip-rule="evenodd" d="M79.8128 6.92605C82.1596 3.13054 84.6981 2.59379 85.2769 2.62866L85.4333 0.00624358C83.9246 -0.0846239 81.3033 0.800246 78.8907 3.72006C76.4781 0.800246 73.8572 -0.0846239 72.3481 0.00624358L72.5045 2.62866C73.0837 2.59379 75.6218 3.13054 77.969 6.92605L78.8419 6.80078L78.8907 6.79373L78.9399 6.80078L79.8128 6.92605ZM1.30737 43.9845C1.30737 19.6926 20.9075 3.40693e-06 45.0854 3.40693e-06C51.7658 3.40693e-06 58.0966 1.50331 63.7611 4.19158C63.0137 4.93868 62.3661 5.77287 61.8384 6.67599C56.7286 4.35622 51.0572 3.06498 45.0854 3.06498C22.5923 3.06498 4.35796 21.3854 4.35796 43.9845V77.7815C4.35796 100.381 22.5923 118.702 45.0854 118.702C67.5787 118.702 85.8133 100.381 85.8133 77.7815V43.9845C85.8133 36.2921 83.7006 29.0953 80.0264 22.948C80.9363 22.4532 81.7765 21.8596 82.5296 21.1832C86.5494 27.8322 88.8639 35.6369 88.8639 43.9845V77.7815C88.8639 102.074 69.2635 121.767 45.0854 121.767C20.9075 121.767 1.30737 102.074 1.30737 77.7815V43.9845ZM44.4513 58.9355V90.6356H47.0661V58.6491L67.889 75.9001L57.5253 92.387L59.7361 93.7899L75.4248 68.8323L73.5369 67.6343L64.7316 60.2144L57.9611 35.9801V35.4661H51.8599V29.3362V26.709H49.2451H43.1439H40.5292V29.3362V35.4661H33.9922L27.6348 58.0348L16.5603 66.5537L30.5058 93.2627L32.8213 92.0424L23.9146 74.9837L44.4513 58.9355ZM55.8357 38.0932H51.8599H49.2451H43.1439H40.5292H35.9697L31.1041 55.3661L44.4513 45.0989H47.0661V45.3283L61.1799 57.2213L55.8357 38.0932ZM19.8995 67.2936L22.6805 72.6201L44.4513 55.6073V48.4077L19.8995 67.2936ZM71.8325 69.627L69.2966 73.6609L47.0661 55.2444V48.7571L71.8325 69.627ZM49.2451 29.3362H43.1439V35.4661H49.2451V29.3362ZM69.348 20.4037C71.6948 16.6082 74.2333 16.0715 74.8121 16.1063L74.9685 13.4839C73.4598 13.3931 70.8385 14.278 68.4259 17.1978C66.0133 14.278 63.3924 13.3931 61.8832 13.4839L62.0397 16.1063C62.6189 16.0715 65.157 16.6082 67.5042 20.4037L68.3766 20.2785L68.4259 20.2714L68.4751 20.2785L69.348 20.4037Z" fill="white"/>
<path fill-rule="evenodd" clip-rule="evenodd" d="M20.0466 103.911C20.0466 104.636 20.632 105.225 21.354 105.225H21.505C21.9956 105.225 22.4477 104.957 22.686 104.527C23.6865 102.717 26.2384 102.613 27.3812 104.336L27.5701 104.62C27.8207 104.998 28.2425 105.225 28.6942 105.225H34.4895C34.9412 105.225 35.363 104.998 35.6136 104.62L35.7111 104.473C36.9466 102.611 39.6878 102.666 40.8493 104.575C41.0947 104.978 41.5314 105.225 42.002 105.225H42.3021H48.1185H48.1438C48.1443 105.225 48.1443 105.225 48.1443 105.225C48.6249 105.215 49.0655 104.95 49.2996 104.527C50.3001 102.717 52.8517 102.613 53.9948 104.336L54.1835 104.62C54.4341 104.998 54.856 105.225 55.3075 105.225H61.1031C61.5546 105.225 61.9765 104.998 62.2271 104.62L62.3247 104.473C63.5602 102.611 66.3013 102.666 67.4627 104.575C67.7081 104.978 68.1448 105.225 68.6154 105.225C69.2295 105.225 69.7276 104.724 69.7276 104.108V102.857C69.7276 102.714 69.6121 102.597 69.4692 102.597C69.3794 102.597 69.2957 102.551 69.2486 102.473L66.1719 97.4154C65.6572 96.569 64.4427 96.5449 63.8953 97.3699L61.6588 100.74C60.8892 101.901 59.5931 102.597 58.2051 102.597C56.8175 102.597 55.5214 101.901 54.7518 100.74L52.5171 97.3729C51.9562 96.5274 50.7033 96.5782 50.2121 97.4666L48.5347 100.501C47.8187 101.795 46.4608 102.597 44.9869 102.597C43.5731 102.597 42.2612 101.858 41.524 100.646L39.5586 97.4154C39.044 96.569 37.8293 96.5449 37.2818 97.3699L35.0453 100.74C34.2755 101.901 32.9796 102.597 31.5918 102.597C30.2041 102.597 28.9081 101.901 28.1384 100.74L25.9037 97.3729C25.3426 96.5274 24.0898 96.5782 23.5986 97.4666L20.8899 102.365C20.8106 102.508 20.66 102.597 20.4966 102.597C20.2481 102.597 20.0466 102.8 20.0466 103.05V103.911Z" fill="white"/>
</g>
<defs>
<clipPath id="clip0">
<rect width="336" height="155" fill="white"/>
</clipPath>
</defs>
</svg>
