<svg width="100" height="100" viewBox="0 0 100 100" fill="none" xmlns="http://www.w3.org/2000/svg">
<rect width="100" height="100" rx="50" fill="#283E6D"/>
<path fill-rule="evenodd" clip-rule="evenodd" d="M71.3144 16.3244C72.7886 13.9546 74.3832 13.6195 74.7467 13.6412L74.845 12.0039C73.8973 11.9472 72.2507 12.4996 70.7352 14.3227C69.2197 12.4996 67.5733 11.9472 66.6253 12.0039L66.7236 13.6412C67.0874 13.6195 68.6817 13.9546 70.1562 16.3244L70.7045 16.2461L70.7352 16.2417L70.7661 16.2461L71.3144 16.3244ZM22 39.4622C22 24.2953 34.3122 12 49.4999 12C53.6962 12 57.673 12.9386 61.2313 14.6171C60.7618 15.0835 60.355 15.6044 60.0235 16.1682C56.8137 14.7199 53.2511 13.9137 49.4999 13.9137C35.3705 13.9137 23.9163 25.3522 23.9163 39.4622V60.5637C23.9163 74.6739 35.3705 86.1126 49.4999 86.1126C63.6294 86.1126 75.0837 74.6739 75.0837 60.5637V39.4622C75.0837 34.6594 73.7566 30.1659 71.4486 26.3278C72.0202 26.0189 72.548 25.6482 73.021 25.2259C75.5461 29.3773 77 34.2503 77 39.4622V60.5637C77 75.7308 64.6877 88.0262 49.4999 88.0262C34.3122 88.0262 22 75.7308 22 60.5637V39.4622ZM49.1016 48.797V68.5893H50.7441V48.6182L63.8243 59.389L57.3141 69.6828L58.7029 70.5587L68.558 54.9762L67.3721 54.2282L61.8409 49.5955L57.5879 34.4646V34.1436H53.7554V30.3163V28.6761H52.1128H48.2803H46.6378V30.3163V34.1436H42.5315L38.538 48.2346L31.5814 53.5535L40.3415 70.2296L41.796 69.4677L36.2011 58.8168L49.1016 48.797ZM56.2528 35.7839H53.7554H52.1128H48.2803H46.6378H43.7737L40.7173 46.5684L49.1016 40.158H50.7441V40.3012L59.6098 47.7267L56.2528 35.7839ZM33.6789 54.0155L35.4258 57.3411L49.1016 46.719V42.2239L33.6789 54.0155ZM66.3015 55.4723L64.7085 57.991L50.7441 46.4924V42.442L66.3015 55.4723ZM52.1128 30.3163H48.2803V34.1436H52.1128V30.3163ZM64.7408 24.7393C66.2149 22.3695 67.8096 22.0344 68.1731 22.0562L68.2714 20.4188C67.3236 20.3621 65.677 20.9146 64.1615 22.7376C62.646 20.9146 60.9997 20.3621 60.0517 20.4188L60.1499 22.0562C60.5138 22.0344 62.1081 22.3695 63.5825 24.7393L64.1306 24.6611L64.1615 24.6567L64.1925 24.6611L64.7408 24.7393Z" fill="white"/>
<path fill-rule="evenodd" clip-rule="evenodd" d="M33.7712 76.8779C33.7712 77.3309 34.1389 77.6983 34.5925 77.6983H34.6873C34.9955 77.6983 35.2795 77.5313 35.4292 77.2622C36.0577 76.1324 37.6607 76.0676 38.3786 77.1431L38.4972 77.3207C38.6546 77.5564 38.9196 77.6983 39.2033 77.6983H42.8437C43.1275 77.6983 43.3925 77.5564 43.5499 77.3207L43.6111 77.2289C44.3872 76.0665 46.1091 76.1004 46.8387 77.2926C46.9929 77.5444 47.2672 77.6983 47.5629 77.6983H47.7514H51.405H51.4209C51.4212 77.6983 51.4212 77.698 51.4212 77.698C51.7231 77.6923 51.9999 77.5266 52.1469 77.2622C52.7755 76.1324 54.3783 76.0676 55.0963 77.1431L55.2149 77.3207C55.3723 77.5564 55.6373 77.6983 55.9209 77.6983H59.5615C59.8451 77.6983 60.1101 77.5564 60.2675 77.3207L60.3288 77.2289C61.1049 76.0665 62.8268 76.1004 63.5564 77.2926C63.7105 77.5444 63.9848 77.6983 64.2805 77.6983C64.6662 77.6983 64.9791 77.3858 64.9791 77.0006V76.2199C64.9791 76.1305 64.9065 76.0577 64.8168 76.0577C64.7604 76.0577 64.7078 76.0285 64.6782 75.9804L62.7455 72.8223C62.4222 72.2939 61.6593 72.2788 61.3155 72.7939L59.9106 74.8983C59.4271 75.6228 58.613 76.0577 57.7411 76.0577C56.8694 76.0577 56.0553 75.6228 55.5718 74.8983L54.168 72.7958C53.8157 72.2679 53.0287 72.2996 52.7202 72.8543L51.6665 74.7485C51.2167 75.5566 50.3637 76.0577 49.4379 76.0577C48.5497 76.0577 47.7256 75.5963 47.2626 74.8396L46.028 72.8223C45.7047 72.2939 44.9417 72.2788 44.5978 72.7939L43.1929 74.8983C42.7093 75.6228 41.8953 76.0577 41.0235 76.0577C40.1518 76.0577 39.3377 75.6228 38.8542 74.8983L37.4504 72.7958C37.098 72.2679 36.311 72.2996 36.0025 72.8543L34.301 75.9126C34.2511 76.0022 34.1565 76.0577 34.0539 76.0577C33.8978 76.0577 33.7712 76.1843 33.7712 76.3401V76.8779Z" fill="white"/>
</svg>
