<svg width="188" height="70" viewBox="0 0 188 70" fill="none" xmlns="http://www.w3.org/2000/svg">
<path d="M84.0682 54.3842C81.1422 54.3842 78.4926 53.9632 76.1191 53.1209C73.7782 52.2463 71.7787 51.0154 70.1206 49.4282C68.4952 47.8086 67.2272 45.8651 66.3167 43.5977C65.4389 41.2978 65 38.7227 65 35.8723C65 32.9248 65.4716 30.2362 66.4143 27.8068C67.3896 25.345 68.739 23.2395 70.462 21.4904C72.1852 19.7412 74.2498 18.397 76.6555 17.4576C79.0615 16.4859 81.7274 16 84.6534 16C86.6693 16 88.5875 16.2753 90.408 16.826C92.2288 17.3767 94.1958 18.2674 96.3089 19.4983L97.2355 16.4859H98.9912V28.7785H96.5528C95.9027 25.7337 94.586 23.3691 92.6026 21.6847C90.6519 20.0004 88.1974 19.1582 85.2387 19.1582C81.4999 19.1582 78.5901 20.5996 76.5092 23.4825C74.461 26.3329 73.4368 30.3333 73.4368 35.4836C73.4368 40.5367 74.4449 44.4074 76.4604 47.096C78.4763 49.7846 81.4023 51.1288 85.2387 51.1288C88.0023 51.1288 90.1481 50.4323 91.676 49.0395C93.2366 47.6142 94.0169 45.6547 94.0169 43.1605C94.0169 41.6705 93.6267 40.5853 92.8464 39.9051C92.0661 39.1925 90.7494 38.7553 88.8962 38.5932V36.6497H104.697V38.5932C103.104 38.5932 101.999 38.9496 101.381 39.6621C100.763 40.3424 100.454 41.5894 100.454 43.4034V49.8655C99.739 49.8655 99.1375 49.8978 98.6498 49.9627C98.1621 49.995 97.6744 50.0922 97.1868 50.2542C96.7318 50.3837 96.2114 50.6106 95.6262 50.9345C95.041 51.2583 94.3095 51.6796 93.4316 52.1977C90.9284 53.6554 87.8073 54.3842 84.0682 54.3842ZM141.126 16.4859H143.515L142.54 28.7785H140.589C139.906 25.7985 138.573 23.4501 136.59 21.7333C134.639 20.0166 132.266 19.1582 129.47 19.1582C127.552 19.1582 125.845 19.5469 124.349 20.3243C122.854 21.0693 121.586 22.1544 120.546 23.5797C119.538 24.9725 118.757 26.6893 118.205 28.7299C117.684 30.7383 117.424 33.0056 117.424 35.5322C117.424 40.553 118.449 44.4237 120.497 47.1446C122.577 49.8332 125.634 51.1774 129.665 51.1774C132.916 51.1774 135.599 50.3028 137.712 48.5537C139.858 46.8045 141.386 44.1971 142.296 40.7311H144.442V53.8983H142.15L141.467 50.0599C137.891 52.9428 133.55 54.3842 128.446 54.3842C125.487 54.3842 122.805 53.9469 120.399 53.0723C117.993 52.1977 115.945 50.9668 114.255 49.3797C112.564 47.76 111.247 45.8005 110.304 43.5006C109.394 41.2007 108.939 38.6418 108.939 35.8237C108.939 32.8762 109.427 30.1876 110.402 27.7582C111.377 25.3288 112.743 23.2395 114.498 21.4904C116.286 19.7412 118.4 18.397 120.838 17.4576C123.309 16.4859 126.04 16 129.031 16C131.014 16 132.868 16.2753 134.591 16.826C136.314 17.3767 138.183 18.2674 140.199 19.4983L141.126 16.4859ZM187.759 27.1751H185.662C185.565 25.588 185.321 24.2761 184.931 23.2395C184.573 22.1706 184.053 21.3284 183.37 20.713C182.687 20.0652 181.858 19.6279 180.883 19.4011C179.908 19.142 178.77 19.0124 177.469 19.0124C176.201 19.0124 175.177 19.0448 174.397 19.1096C173.649 19.142 173.064 19.223 172.641 19.3525C172.251 19.4497 171.991 19.5955 171.861 19.7898C171.731 19.9842 171.666 20.2271 171.666 20.5186V45.9785C171.666 47.0151 171.731 47.9058 171.861 48.6508C172.024 49.3959 172.332 50.0113 172.788 50.4972C173.243 50.9507 173.909 51.3069 174.787 51.5661C175.665 51.7928 176.819 51.9225 178.25 51.9548V53.8983H157.816V51.9548C159.279 51.9225 160.449 51.7928 161.327 51.5661C162.205 51.3069 162.871 50.9507 163.327 50.4972C163.814 50.0113 164.123 49.3959 164.253 48.6508C164.416 47.9058 164.497 47.0151 164.497 45.9785V20.5186C164.497 20.2271 164.432 19.9842 164.302 19.7898C164.205 19.5955 163.977 19.4497 163.619 19.3525C163.262 19.223 162.741 19.142 162.059 19.1096C161.408 19.0448 160.547 19.0124 159.474 19.0124C158.304 19.0124 157.182 19.0772 156.109 19.2068C155.036 19.304 154.093 19.6279 153.281 20.1785C152.468 20.6968 151.801 21.5066 151.281 22.6079C150.793 23.6768 150.533 25.1993 150.501 27.1751H148.599L149.086 16.4859H187.272L187.759 27.1751Z" fill="white"/>
<path fill-rule="evenodd" clip-rule="evenodd" d="M44.9257 4.84284C46.2387 2.73694 47.6591 2.43913 47.9829 2.45848L48.0705 1.00346C47.2263 0.953047 45.7596 1.44401 44.4097 3.06403C43.0598 1.44401 41.5934 0.953047 40.749 1.00346L40.8365 2.45848C41.1606 2.43913 42.5807 2.73694 43.894 4.84284L44.3824 4.77334L44.4097 4.76942L44.4373 4.77334L44.9257 4.84284ZM1 25.4043C1 11.9262 11.9668 1 25.4949 1C29.2327 1 32.7749 1.8341 35.9443 3.32565C35.5262 3.74017 35.1638 4.20301 34.8685 4.7041C32.0095 3.417 28.8362 2.70057 25.4949 2.70057C12.9094 2.70057 2.70687 12.8654 2.70687 25.4043V44.1562C2.70687 56.6952 12.9094 66.8602 25.4949 66.8602C38.0804 66.8602 48.2831 56.6952 48.2831 44.1562V25.4043C48.2831 21.1363 47.101 17.1432 45.0452 13.7324C45.5543 13.4579 46.0244 13.1285 46.4458 12.7532C48.6949 16.4424 49.99 20.7727 49.99 25.4043V44.1562C49.99 57.6344 39.0231 68.5608 25.4949 68.5608C11.9668 68.5608 1 57.6344 1 44.1562V25.4043ZM25.1401 33.6997V51.2881H26.6031V33.5408L38.254 43.1123L32.4553 52.2599L33.6922 53.0383L42.4705 39.1908L41.4141 38.5261L36.4874 34.4093L32.6991 20.9632V20.678H29.2853V17.2768V15.8192H27.8223H24.4086H22.9455V17.2768V20.678H19.2879L15.7308 33.2L9.53437 37.9266L17.3372 52.7458L18.6328 52.0687L13.6493 42.6038L25.1401 33.6997ZM31.5099 22.1356H29.2853H27.8223H24.4086H22.9455H20.3944L17.672 31.7192L25.1401 26.0226H26.6031V26.1499L34.5001 32.7486L31.5099 22.1356ZM11.4027 38.3371L12.9587 41.2925L25.1401 31.8531V27.8585L11.4027 38.3371ZM40.4605 39.6317L39.0416 41.8699L26.6031 31.6517V28.0523L40.4605 39.6317ZM27.8223 17.2768H24.4086V20.678H27.8223V17.2768ZM39.0704 12.3208C40.3834 10.2149 41.8038 9.91708 42.1276 9.93642L42.2152 8.48142C41.371 8.43098 39.9043 8.92196 38.5544 10.542C37.2045 8.92196 35.7381 8.43098 34.8936 8.48142L34.9812 9.93642C35.3052 9.91708 36.7254 10.2149 38.0387 12.3208L38.5268 12.2513L38.5544 12.2474L38.582 12.2513L39.0704 12.3208Z" fill="white" stroke="white"/>
<path fill-rule="evenodd" clip-rule="evenodd" d="M11 58.9645C11 59.367 11.3275 59.6935 11.7315 59.6935H11.816C12.0905 59.6935 12.3435 59.5451 12.4768 59.3061C13.0366 58.302 14.4644 58.2444 15.1039 59.2001L15.2095 59.358C15.3497 59.5675 15.5858 59.6935 15.8385 59.6935H19.0811C19.3339 59.6935 19.5699 59.5675 19.7101 59.358L19.7647 59.2764C20.4559 58.2435 21.9897 58.2736 22.6396 59.333C22.7769 59.5568 23.0212 59.6935 23.2846 59.6935H23.4525H26.7069H26.721C26.7213 59.6935 26.7213 59.6933 26.7213 59.6933C26.9902 59.6882 27.2368 59.541 27.3677 59.3061C27.9276 58.302 29.3552 58.2444 29.9948 59.2001L30.1004 59.358C30.2406 59.5675 30.4767 59.6935 30.7293 59.6935H33.9721C34.2247 59.6935 34.4607 59.5675 34.6009 59.358L34.6556 59.2764C35.3469 58.2435 36.8806 58.2736 37.5304 59.333C37.6677 59.5568 37.912 59.6935 38.1754 59.6935C38.519 59.6935 38.7977 59.4159 38.7977 59.0736V58.3797C38.7977 58.3003 38.733 58.2357 38.6531 58.2357C38.6028 58.2357 38.556 58.2097 38.5297 58.1669L36.8082 55.3605C36.5202 54.8909 35.8406 54.8776 35.5344 55.3353L34.283 57.2054C33.8524 57.8492 33.1272 58.2357 32.3506 58.2357C31.5742 58.2357 30.849 57.8492 30.4184 57.2054L29.168 55.337C28.8541 54.8678 28.1531 54.896 27.8783 55.3889L26.9398 57.0723C26.5391 57.7904 25.7793 58.2357 24.9547 58.2357C24.1636 58.2357 23.4296 57.8256 23.0171 57.1532L21.9174 55.3605C21.6295 54.8909 20.9498 54.8776 20.6435 55.3353L19.3921 57.2054C18.9614 57.8492 18.2363 58.2357 17.4598 58.2357C16.6833 58.2357 15.9582 57.8492 15.5275 57.2054L14.2771 55.337C13.9632 54.8678 13.2622 54.896 12.9874 55.3889L11.4719 58.1067C11.4275 58.1864 11.3432 58.2357 11.2518 58.2357C11.1127 58.2357 11 58.3482 11 58.4866V58.9645Z" fill="white"/>
</svg>
